<mxfile host="Electron" agent="Mozilla/5.0 (Windows NT 10.0; Win64; x64) AppleWebKit/537.36 (KHTML, like Gecko) draw.io/26.0.16 Chrome/132.0.6834.196 Electron/34.2.0 Safari/537.36" version="26.0.16">
  <diagram name="Page-1" id="Bj0_QASdARDf9qRqiEjv">
    <mxGraphModel dx="893" dy="519" grid="1" gridSize="10" guides="1" tooltips="1" connect="1" arrows="1" fold="1" page="1" pageScale="1" pageWidth="1169" pageHeight="827" math="0" shadow="0">
      <root>
        <mxCell id="0" />
        <mxCell id="1" parent="0" />
        <mxCell id="btaBWANVYXcahimvtC95-86" value="Fully&lt;div&gt;Aggre-&lt;/div&gt;&lt;div&gt;&lt;span style=&quot;background-color: transparent; color: light-dark(rgb(0, 0, 0), rgb(255, 255, 255));&quot;&gt;gated&lt;/span&gt;&lt;/div&gt;" style="rounded=0;whiteSpace=wrap;html=1;verticalAlign=middle;fillColor=none;dashed=1;dashPattern=8 8;align=left;spacingLeft=8;" vertex="1" parent="1">
          <mxGeometry x="700" y="850" width="150" height="180" as="geometry" />
        </mxCell>
        <mxCell id="btaBWANVYXcahimvtC95-52" value="Fully Aggregated" style="rounded=0;whiteSpace=wrap;html=1;verticalAlign=top;fillColor=none;dashed=1;dashPattern=8 8;" vertex="1" parent="1">
          <mxGeometry x="550" y="550" width="220" height="100" as="geometry" />
        </mxCell>
        <mxCell id="btaBWANVYXcahimvtC95-1" value="VC 2" style="ellipse;whiteSpace=wrap;html=1;aspect=fixed;" vertex="1" parent="1">
          <mxGeometry x="380" y="320" width="60" height="60" as="geometry" />
        </mxCell>
        <mxCell id="btaBWANVYXcahimvtC95-6" style="rounded=0;orthogonalLoop=1;jettySize=auto;html=1;edgeStyle=orthogonalEdgeStyle;entryX=0;entryY=0.5;entryDx=0;entryDy=0;dashed=1;" edge="1" parent="1" source="btaBWANVYXcahimvtC95-2" target="btaBWANVYXcahimvtC95-5">
          <mxGeometry relative="1" as="geometry" />
        </mxCell>
        <mxCell id="btaBWANVYXcahimvtC95-8" value="2011&lt;div&gt;$ 1mi&lt;/div&gt;" style="edgeLabel;html=1;align=center;verticalAlign=middle;resizable=0;points=[];" vertex="1" connectable="0" parent="btaBWANVYXcahimvtC95-6">
          <mxGeometry x="-0.2163" relative="1" as="geometry">
            <mxPoint x="-2" y="-5" as="offset" />
          </mxGeometry>
        </mxCell>
        <mxCell id="btaBWANVYXcahimvtC95-2" value="VC 1" style="ellipse;whiteSpace=wrap;html=1;aspect=fixed;" vertex="1" parent="1">
          <mxGeometry x="280" y="320" width="60" height="60" as="geometry" />
        </mxCell>
        <mxCell id="btaBWANVYXcahimvtC95-5" value="Startup" style="shape=label;whiteSpace=wrap;html=1;fixedSize=1;rounded=1;" vertex="1" parent="1">
          <mxGeometry x="330" y="410" width="60" height="30" as="geometry" />
        </mxCell>
        <mxCell id="btaBWANVYXcahimvtC95-7" style="rounded=0;orthogonalLoop=1;jettySize=auto;html=1;edgeStyle=orthogonalEdgeStyle;entryX=1;entryY=0.5;entryDx=0;entryDy=0;dashed=1;" edge="1" parent="1" source="btaBWANVYXcahimvtC95-1" target="btaBWANVYXcahimvtC95-5">
          <mxGeometry relative="1" as="geometry">
            <mxPoint x="270" y="387" as="sourcePoint" />
            <mxPoint x="353" y="460" as="targetPoint" />
          </mxGeometry>
        </mxCell>
        <mxCell id="btaBWANVYXcahimvtC95-9" value="2017&lt;div&gt;$ 2mi&lt;/div&gt;" style="edgeLabel;html=1;align=center;verticalAlign=middle;resizable=0;points=[];" vertex="1" connectable="0" parent="btaBWANVYXcahimvtC95-7">
          <mxGeometry x="-0.1739" relative="1" as="geometry">
            <mxPoint x="-1" y="-7" as="offset" />
          </mxGeometry>
        </mxCell>
        <mxCell id="btaBWANVYXcahimvtC95-11" style="edgeStyle=orthogonalEdgeStyle;rounded=0;orthogonalLoop=1;jettySize=auto;html=1;endArrow=oval;startFill=1;startArrow=oval;endFill=1;" edge="1" parent="1" source="btaBWANVYXcahimvtC95-13" target="btaBWANVYXcahimvtC95-10">
          <mxGeometry relative="1" as="geometry" />
        </mxCell>
        <mxCell id="btaBWANVYXcahimvtC95-12" value="Edge" style="edgeLabel;html=1;align=center;verticalAlign=middle;resizable=0;points=[];" vertex="1" connectable="0" parent="btaBWANVYXcahimvtC95-11">
          <mxGeometry x="-0.0597" y="2" relative="1" as="geometry">
            <mxPoint x="2" y="2" as="offset" />
          </mxGeometry>
        </mxCell>
        <mxCell id="btaBWANVYXcahimvtC95-13" value="Node 1" style="ellipse;whiteSpace=wrap;html=1;aspect=fixed;" vertex="1" parent="1">
          <mxGeometry x="580" y="320" width="60" height="60" as="geometry" />
        </mxCell>
        <mxCell id="btaBWANVYXcahimvtC95-14" value="" style="shape=flexArrow;endArrow=classic;html=1;rounded=0;" edge="1" parent="1">
          <mxGeometry width="50" height="50" relative="1" as="geometry">
            <mxPoint x="460" y="349.66" as="sourcePoint" />
            <mxPoint x="560" y="350" as="targetPoint" />
          </mxGeometry>
        </mxCell>
        <mxCell id="btaBWANVYXcahimvtC95-15" value="VC 1" style="text;html=1;align=center;verticalAlign=middle;whiteSpace=wrap;rounded=0;" vertex="1" parent="1">
          <mxGeometry x="580" y="380" width="60" height="30" as="geometry" />
        </mxCell>
        <mxCell id="btaBWANVYXcahimvtC95-16" value="VC 2" style="text;html=1;align=center;verticalAlign=middle;whiteSpace=wrap;rounded=0;" vertex="1" parent="1">
          <mxGeometry x="700" y="380" width="60" height="30" as="geometry" />
        </mxCell>
        <mxCell id="btaBWANVYXcahimvtC95-17" value="Observed phenomena" style="text;html=1;align=center;verticalAlign=middle;whiteSpace=wrap;rounded=0;" vertex="1" parent="1">
          <mxGeometry x="210" y="335" width="60" height="30" as="geometry" />
        </mxCell>
        <mxCell id="btaBWANVYXcahimvtC95-24" value="" style="sketch=0;html=1;aspect=fixed;strokeColor=none;shadow=0;fillColor=#B3B3B3;verticalAlign=top;labelPosition=center;verticalLabelPosition=bottom;shape=mxgraph.gcp2.network;direction=south;" vertex="1" parent="1">
          <mxGeometry x="240" y="600" width="40" height="40" as="geometry" />
        </mxCell>
        <mxCell id="btaBWANVYXcahimvtC95-25" value="" style="sketch=0;html=1;aspect=fixed;strokeColor=none;shadow=0;fillColor=#B3B3B3;verticalAlign=top;labelPosition=center;verticalLabelPosition=bottom;shape=mxgraph.gcp2.network" vertex="1" parent="1">
          <mxGeometry x="320" y="600" width="40" height="40" as="geometry" />
        </mxCell>
        <mxCell id="btaBWANVYXcahimvtC95-26" value="2010" style="text;html=1;align=center;verticalAlign=middle;whiteSpace=wrap;rounded=0;strokeColor=none;fontColor=#B3B3B3;fontStyle=1" vertex="1" parent="1">
          <mxGeometry x="230" y="570" width="60" height="30" as="geometry" />
        </mxCell>
        <mxCell id="btaBWANVYXcahimvtC95-27" value="2011" style="text;html=1;align=center;verticalAlign=middle;whiteSpace=wrap;rounded=0;strokeColor=none;fontColor=#B3B3B3;fontStyle=1" vertex="1" parent="1">
          <mxGeometry x="310" y="570" width="60" height="30" as="geometry" />
        </mxCell>
        <mxCell id="btaBWANVYXcahimvtC95-30" value="" style="sketch=0;html=1;aspect=fixed;strokeColor=none;shadow=0;fillColor=#B3B3B3;verticalAlign=top;labelPosition=center;verticalLabelPosition=bottom;shape=mxgraph.gcp2.network" vertex="1" parent="1">
          <mxGeometry x="400" y="600" width="40" height="40" as="geometry" />
        </mxCell>
        <mxCell id="btaBWANVYXcahimvtC95-31" value="2012" style="text;html=1;align=center;verticalAlign=middle;whiteSpace=wrap;rounded=0;strokeColor=none;fontColor=#B3B3B3;fontStyle=1" vertex="1" parent="1">
          <mxGeometry x="390" y="570" width="60" height="30" as="geometry" />
        </mxCell>
        <mxCell id="btaBWANVYXcahimvtC95-32" value="Snapshot" style="rounded=0;whiteSpace=wrap;html=1;verticalAlign=top;fillColor=none;dashed=1;dashPattern=8 8;" vertex="1" parent="1">
          <mxGeometry x="300" y="550" width="80" height="100" as="geometry" />
        </mxCell>
        <mxCell id="btaBWANVYXcahimvtC95-33" value="..." style="text;html=1;align=center;verticalAlign=middle;whiteSpace=wrap;rounded=0;fontStyle=1" vertex="1" parent="1">
          <mxGeometry x="190" y="605" width="60" height="25" as="geometry" />
        </mxCell>
        <mxCell id="btaBWANVYXcahimvtC95-34" value="..." style="text;html=1;align=center;verticalAlign=middle;whiteSpace=wrap;rounded=0;fontStyle=1" vertex="1" parent="1">
          <mxGeometry x="430" y="605" width="60" height="25" as="geometry" />
        </mxCell>
        <mxCell id="btaBWANVYXcahimvtC95-46" value="" style="sketch=0;html=1;aspect=fixed;strokeColor=none;shadow=0;fillColor=#B3B3B3;verticalAlign=top;labelPosition=center;verticalLabelPosition=bottom;shape=mxgraph.gcp2.network;direction=south;" vertex="1" parent="1">
          <mxGeometry x="560" y="600" width="40" height="40" as="geometry" />
        </mxCell>
        <mxCell id="btaBWANVYXcahimvtC95-47" value="" style="sketch=0;html=1;aspect=fixed;strokeColor=none;shadow=0;fillColor=#B3B3B3;verticalAlign=top;labelPosition=center;verticalLabelPosition=bottom;shape=mxgraph.gcp2.network" vertex="1" parent="1">
          <mxGeometry x="640" y="600" width="40" height="40" as="geometry" />
        </mxCell>
        <mxCell id="btaBWANVYXcahimvtC95-48" value="MinYear" style="text;html=1;align=center;verticalAlign=middle;whiteSpace=wrap;rounded=0;strokeColor=none;fontColor=#B3B3B3;fontStyle=1" vertex="1" parent="1">
          <mxGeometry x="550" y="570" width="60" height="30" as="geometry" />
        </mxCell>
        <mxCell id="btaBWANVYXcahimvtC95-49" value="..." style="text;html=1;align=center;verticalAlign=middle;whiteSpace=wrap;rounded=0;strokeColor=none;fontColor=#B3B3B3;fontStyle=1" vertex="1" parent="1">
          <mxGeometry x="630" y="570" width="60" height="30" as="geometry" />
        </mxCell>
        <mxCell id="btaBWANVYXcahimvtC95-50" value="" style="sketch=0;html=1;aspect=fixed;strokeColor=none;shadow=0;fillColor=#B3B3B3;verticalAlign=top;labelPosition=center;verticalLabelPosition=bottom;shape=mxgraph.gcp2.network" vertex="1" parent="1">
          <mxGeometry x="720" y="600" width="40" height="40" as="geometry" />
        </mxCell>
        <mxCell id="btaBWANVYXcahimvtC95-51" value="MaxYear" style="text;html=1;align=center;verticalAlign=middle;whiteSpace=wrap;rounded=0;strokeColor=none;fontColor=#B3B3B3;fontStyle=1" vertex="1" parent="1">
          <mxGeometry x="710" y="570" width="60" height="30" as="geometry" />
        </mxCell>
        <mxCell id="btaBWANVYXcahimvtC95-54" value="+" style="text;html=1;align=center;verticalAlign=middle;whiteSpace=wrap;rounded=0;fontStyle=1" vertex="1" parent="1">
          <mxGeometry x="590" y="610" width="60" height="20" as="geometry" />
        </mxCell>
        <mxCell id="btaBWANVYXcahimvtC95-55" value="+" style="text;html=1;align=center;verticalAlign=middle;whiteSpace=wrap;rounded=0;fontStyle=1" vertex="1" parent="1">
          <mxGeometry x="670" y="610" width="60" height="20" as="geometry" />
        </mxCell>
        <mxCell id="btaBWANVYXcahimvtC95-57" value="" style="sketch=0;html=1;aspect=fixed;strokeColor=none;shadow=0;fillColor=#B3B3B3;verticalAlign=top;labelPosition=center;verticalLabelPosition=bottom;shape=mxgraph.gcp2.network;direction=south;" vertex="1" parent="1">
          <mxGeometry x="360" y="860" width="40" height="40" as="geometry" />
        </mxCell>
        <mxCell id="btaBWANVYXcahimvtC95-58" value="" style="sketch=0;html=1;aspect=fixed;strokeColor=none;shadow=0;fillColor=#B3B3B3;verticalAlign=top;labelPosition=center;verticalLabelPosition=bottom;shape=mxgraph.gcp2.network" vertex="1" parent="1">
          <mxGeometry x="360" y="920" width="40" height="40" as="geometry" />
        </mxCell>
        <mxCell id="btaBWANVYXcahimvtC95-59" value="2010" style="text;html=1;align=center;verticalAlign=middle;whiteSpace=wrap;rounded=0;strokeColor=none;fontColor=#B3B3B3;fontStyle=1" vertex="1" parent="1">
          <mxGeometry x="400" y="865" width="40" height="30" as="geometry" />
        </mxCell>
        <mxCell id="btaBWANVYXcahimvtC95-60" value="2011" style="text;html=1;align=center;verticalAlign=middle;whiteSpace=wrap;rounded=0;strokeColor=none;fontColor=#B3B3B3;fontStyle=1" vertex="1" parent="1">
          <mxGeometry x="400" y="925" width="40" height="30" as="geometry" />
        </mxCell>
        <mxCell id="btaBWANVYXcahimvtC95-61" value="" style="sketch=0;html=1;aspect=fixed;strokeColor=none;shadow=0;fillColor=#B3B3B3;verticalAlign=top;labelPosition=center;verticalLabelPosition=bottom;shape=mxgraph.gcp2.network" vertex="1" parent="1">
          <mxGeometry x="360" y="980" width="40" height="40" as="geometry" />
        </mxCell>
        <mxCell id="btaBWANVYXcahimvtC95-62" value="2012" style="text;html=1;align=center;verticalAlign=middle;whiteSpace=wrap;rounded=0;strokeColor=none;fontColor=#B3B3B3;fontStyle=1" vertex="1" parent="1">
          <mxGeometry x="400" y="985" width="40" height="30" as="geometry" />
        </mxCell>
        <mxCell id="btaBWANVYXcahimvtC95-63" value="Snapshot" style="rounded=0;whiteSpace=wrap;html=1;verticalAlign=middle;fillColor=none;dashed=1;dashPattern=8 8;align=left;spacingLeft=8;" vertex="1" parent="1">
          <mxGeometry x="290" y="910" width="150" height="60" as="geometry" />
        </mxCell>
        <mxCell id="btaBWANVYXcahimvtC95-64" value="..." style="text;html=1;align=center;verticalAlign=middle;whiteSpace=wrap;rounded=0;fontStyle=1" vertex="1" parent="1">
          <mxGeometry x="370" y="835" width="20" height="25" as="geometry" />
        </mxCell>
        <mxCell id="btaBWANVYXcahimvtC95-65" value="..." style="text;html=1;align=center;verticalAlign=middle;whiteSpace=wrap;rounded=0;fontStyle=1" vertex="1" parent="1">
          <mxGeometry x="370" y="1015" width="20" height="25" as="geometry" />
        </mxCell>
        <mxCell id="btaBWANVYXcahimvtC95-69" value="" style="sketch=0;html=1;aspect=fixed;strokeColor=none;shadow=0;fillColor=#B3B3B3;verticalAlign=top;labelPosition=center;verticalLabelPosition=bottom;shape=mxgraph.gcp2.network;direction=south;" vertex="1" parent="1">
          <mxGeometry x="560" y="860" width="40" height="40" as="geometry" />
        </mxCell>
        <mxCell id="btaBWANVYXcahimvtC95-70" value="" style="sketch=0;html=1;aspect=fixed;strokeColor=none;shadow=0;fillColor=#B3B3B3;verticalAlign=top;labelPosition=center;verticalLabelPosition=bottom;shape=mxgraph.gcp2.network" vertex="1" parent="1">
          <mxGeometry x="560" y="920" width="40" height="40" as="geometry" />
        </mxCell>
        <mxCell id="btaBWANVYXcahimvtC95-71" value="2010" style="text;html=1;align=center;verticalAlign=middle;whiteSpace=wrap;rounded=0;strokeColor=none;fontColor=#B3B3B3;fontStyle=1" vertex="1" parent="1">
          <mxGeometry x="600" y="865" width="40" height="30" as="geometry" />
        </mxCell>
        <mxCell id="btaBWANVYXcahimvtC95-72" value="2011" style="text;html=1;align=center;verticalAlign=middle;whiteSpace=wrap;rounded=0;strokeColor=none;fontColor=#B3B3B3;fontStyle=1" vertex="1" parent="1">
          <mxGeometry x="600" y="925" width="40" height="30" as="geometry" />
        </mxCell>
        <mxCell id="btaBWANVYXcahimvtC95-73" value="" style="sketch=0;html=1;aspect=fixed;strokeColor=none;shadow=0;fillColor=#B3B3B3;verticalAlign=top;labelPosition=center;verticalLabelPosition=bottom;shape=mxgraph.gcp2.network" vertex="1" parent="1">
          <mxGeometry x="560" y="980" width="40" height="40" as="geometry" />
        </mxCell>
        <mxCell id="btaBWANVYXcahimvtC95-74" value="2012" style="text;html=1;align=center;verticalAlign=middle;whiteSpace=wrap;rounded=0;strokeColor=none;fontColor=#B3B3B3;fontStyle=1" vertex="1" parent="1">
          <mxGeometry x="600" y="985" width="40" height="30" as="geometry" />
        </mxCell>
        <mxCell id="btaBWANVYXcahimvtC95-75" value="Time&lt;div&gt;Window&lt;/div&gt;" style="rounded=0;whiteSpace=wrap;html=1;verticalAlign=middle;fillColor=none;dashed=1;dashPattern=8 8;align=left;spacingLeft=8;" vertex="1" parent="1">
          <mxGeometry x="500" y="910" width="140" height="120" as="geometry" />
        </mxCell>
        <mxCell id="btaBWANVYXcahimvtC95-76" value="..." style="text;html=1;align=center;verticalAlign=middle;whiteSpace=wrap;rounded=0;fontStyle=1" vertex="1" parent="1">
          <mxGeometry x="570" y="825" width="20" height="25" as="geometry" />
        </mxCell>
        <mxCell id="btaBWANVYXcahimvtC95-77" value="..." style="text;html=1;align=center;verticalAlign=middle;whiteSpace=wrap;rounded=0;fontStyle=1" vertex="1" parent="1">
          <mxGeometry x="570" y="1025" width="20" height="25" as="geometry" />
        </mxCell>
        <mxCell id="btaBWANVYXcahimvtC95-79" value="+" style="text;html=1;align=center;verticalAlign=middle;whiteSpace=wrap;rounded=0;fontStyle=1" vertex="1" parent="1">
          <mxGeometry x="570" y="960" width="20" height="20" as="geometry" />
        </mxCell>
        <mxCell id="btaBWANVYXcahimvtC95-80" value="" style="sketch=0;html=1;aspect=fixed;strokeColor=none;shadow=0;fillColor=#B3B3B3;verticalAlign=top;labelPosition=center;verticalLabelPosition=bottom;shape=mxgraph.gcp2.network;direction=south;" vertex="1" parent="1">
          <mxGeometry x="760" y="860" width="40" height="40" as="geometry" />
        </mxCell>
        <mxCell id="btaBWANVYXcahimvtC95-81" value="" style="sketch=0;html=1;aspect=fixed;strokeColor=none;shadow=0;fillColor=#B3B3B3;verticalAlign=top;labelPosition=center;verticalLabelPosition=bottom;shape=mxgraph.gcp2.network" vertex="1" parent="1">
          <mxGeometry x="760" y="920" width="40" height="40" as="geometry" />
        </mxCell>
        <mxCell id="btaBWANVYXcahimvtC95-82" value="Year 0" style="text;html=1;align=center;verticalAlign=middle;whiteSpace=wrap;rounded=0;strokeColor=none;fontColor=#B3B3B3;fontStyle=1" vertex="1" parent="1">
          <mxGeometry x="800" y="865" width="40" height="30" as="geometry" />
        </mxCell>
        <mxCell id="btaBWANVYXcahimvtC95-83" value="..." style="text;html=1;align=center;verticalAlign=middle;whiteSpace=wrap;rounded=0;strokeColor=none;fontColor=#B3B3B3;fontStyle=1" vertex="1" parent="1">
          <mxGeometry x="800" y="925" width="40" height="30" as="geometry" />
        </mxCell>
        <mxCell id="btaBWANVYXcahimvtC95-84" value="" style="sketch=0;html=1;aspect=fixed;strokeColor=none;shadow=0;fillColor=#B3B3B3;verticalAlign=top;labelPosition=center;verticalLabelPosition=bottom;shape=mxgraph.gcp2.network" vertex="1" parent="1">
          <mxGeometry x="760" y="980" width="40" height="40" as="geometry" />
        </mxCell>
        <mxCell id="btaBWANVYXcahimvtC95-85" value="Year N" style="text;html=1;align=center;verticalAlign=middle;whiteSpace=wrap;rounded=0;strokeColor=none;fontColor=#B3B3B3;fontStyle=1" vertex="1" parent="1">
          <mxGeometry x="800" y="985" width="40" height="30" as="geometry" />
        </mxCell>
        <mxCell id="btaBWANVYXcahimvtC95-89" value="+" style="text;html=1;align=center;verticalAlign=middle;whiteSpace=wrap;rounded=0;fontStyle=1" vertex="1" parent="1">
          <mxGeometry x="770" y="960" width="20" height="20" as="geometry" />
        </mxCell>
        <mxCell id="btaBWANVYXcahimvtC95-90" value="+" style="text;html=1;align=center;verticalAlign=middle;whiteSpace=wrap;rounded=0;fontStyle=1" vertex="1" parent="1">
          <mxGeometry x="770" y="900" width="20" height="20" as="geometry" />
        </mxCell>
        <mxCell id="btaBWANVYXcahimvtC95-91" value="" style="endArrow=none;html=1;rounded=0;strokeColor=#B3B3B3;" edge="1" parent="1">
          <mxGeometry width="50" height="50" relative="1" as="geometry">
            <mxPoint x="470" y="1050" as="sourcePoint" />
            <mxPoint x="470" y="840" as="targetPoint" />
          </mxGeometry>
        </mxCell>
        <mxCell id="btaBWANVYXcahimvtC95-92" value="" style="endArrow=none;html=1;rounded=0;strokeColor=#B3B3B3;" edge="1" parent="1">
          <mxGeometry width="50" height="50" relative="1" as="geometry">
            <mxPoint x="670" y="1045" as="sourcePoint" />
            <mxPoint x="670" y="835" as="targetPoint" />
          </mxGeometry>
        </mxCell>
        <mxCell id="btaBWANVYXcahimvtC95-93" value="" style="shape=image;verticalLabelPosition=bottom;labelBackgroundColor=default;verticalAlign=top;aspect=fixed;imageAspect=0;image=data:image/png,iVBORw0KGgoAAAANSUhEUgAAAQQAAACtCAMAAABhsvGqAAAAFVBMVEX///8AJlTOESYAGk56fY/ce33NABrfQkIOAAAA5UlEQVR4nO3QSQEAIAADoHn2j2yKvYQIZDSsnYpzZ0MkSJAgQYIECRIkSJAgQYIECRIkSJAgQYIECRIkSJAgQYIECRIkSJAgQYIECRIkSJAgQYIECRIkSJAgQYIECRIkSJAgQYIECRIkSJAgQYIECRIkSJAgQYIECRIkSJAgQYIECRIkSJAgQYIECRIkSJAgQYIECRIkSJAgQYIECRIkSJAgQYIECRIkSJAgQYIECRIkSJAgQYIECRIkSJAgQYIECRIkSJAgQYIECRIkSJAgQYIECRIkSJAgQYIECRIkSJAgQcL3CQ86tbh+5X8kwAAAAABJRU5ErkJggg==;" vertex="1" parent="1">
          <mxGeometry x="420" y="1110" width="260" height="173" as="geometry" />
        </mxCell>
        <mxCell id="btaBWANVYXcahimvtC95-95" value="&lt;b style=&quot;font-size: 11px; text-wrap-mode: nowrap;&quot;&gt;2017&lt;/b&gt;&lt;div style=&quot;font-size: 11px; text-wrap-mode: nowrap;&quot;&gt;$ 3mi&lt;/div&gt;" style="text;html=1;align=center;verticalAlign=middle;whiteSpace=wrap;rounded=0;" vertex="1" parent="1">
          <mxGeometry x="640" y="360" width="60" height="30" as="geometry" />
        </mxCell>
        <mxCell id="btaBWANVYXcahimvtC95-96" value="Get latest year &amp;amp;&lt;div&gt;Sum investments&lt;/div&gt;" style="text;html=1;align=center;verticalAlign=middle;whiteSpace=wrap;rounded=0;" vertex="1" parent="1">
          <mxGeometry x="460" y="365" width="100" height="30" as="geometry" />
        </mxCell>
        <mxCell id="btaBWANVYXcahimvtC95-10" value="Node 2" style="ellipse;whiteSpace=wrap;html=1;aspect=fixed;" vertex="1" parent="1">
          <mxGeometry x="700" y="320" width="60" height="60" as="geometry" />
        </mxCell>
      </root>
    </mxGraphModel>
  </diagram>
</mxfile>
